<svg version="1.1" id="Layer_1" xmlns="http://www.w3.org/2000/svg" xmlns:xlink="http://www.w3.org/1999/xlink" x="0px" y="0px" width="100%" viewBox="0 0 512 512" enable-background="new 0 0 512 512" xml:space="preserve">

<path fill="#FFFFFF" opacity="1.000000" stroke="none" d="
M432.745331,48.248024 
	C448.303040,58.792717 460.557220,71.969803 469.955231,87.769119 
	C480.014221,104.679619 484.261017,123.234634 485.008179,142.728149 
	C485.298889,150.313080 485.876221,157.892609 485.964386,165.478760 
	C486.377960,201.055222 487.115173,236.636581 486.839966,272.209259 
	C486.660919,295.351105 483.404663,318.049347 471.142365,338.573242 
	C463.651642,351.110779 454.980072,362.403076 443.761688,371.957886 
	C430.504303,383.249359 415.771057,391.524109 399.142761,396.263123 
	C392.342682,398.201111 385.188263,399.595367 378.145020,399.849396 
	C357.247101,400.603149 336.322418,400.577545 315.411743,401.023651 
	C291.842377,401.526550 271.056061,409.433167 252.380554,423.912720 
	C238.345779,434.794189 223.717346,444.946533 208.975876,454.862488 
	C202.824371,459.000336 195.985382,462.613464 188.943283,464.817352 
	C177.397217,468.430756 166.540436,465.174500 156.830460,458.291840 
	C146.068878,450.663849 140.914551,439.765869 140.183075,426.943390 
	C139.934967,422.593994 141.456146,418.020996 142.764603,413.731934 
	C145.218796,405.687256 142.090897,401.148376 133.491486,401.010376 
	C129.660065,400.948883 125.824066,400.905060 121.994850,401.015778 
	C101.049942,401.621246 82.525291,394.509583 66.015976,382.339996 
	C49.497215,370.163391 37.689034,354.052460 31.932041,334.260803 
	C29.242205,325.013550 27.323605,315.190460 27.215616,305.604004 
	C26.723902,261.953308 26.446793,218.283920 27.238384,174.642029 
	C27.621857,153.500427 27.726995,132.141983 33.929028,111.456497 
	C40.673130,88.963058 53.691284,71.000893 71.368568,55.852180 
	C85.920532,43.381733 102.467331,35.346634 121.074532,31.516710 
	C127.753677,30.141937 134.626511,29.479839 141.446060,29.050997 
	C207.395004,24.903847 273.421631,27.394018 339.409058,27.286650 
	C361.634277,27.250484 384.346252,27.234009 405.718811,35.120548 
	C414.963348,38.531815 423.579163,43.646938 432.745331,48.248024 
M451.997742,138.776947 
	C451.665222,137.196533 451.400940,135.598053 450.988403,134.038803 
	C449.106079,126.924118 447.834076,119.561455 445.135162,112.767654 
	C439.793793,99.322159 430.522552,88.751839 419.294220,79.659355 
	C409.822205,71.989159 399.319061,65.945518 387.496979,64.290489 
	C370.159180,61.863300 352.565399,61.176853 335.060089,60.076286 
	C327.757904,59.617191 320.402588,59.962326 313.071777,60.006012 
	C259.002716,60.328228 204.931946,60.513916 150.866608,61.154984 
	C142.166473,61.258144 133.403885,62.986671 124.824654,64.725883 
	C112.917580,67.139725 102.742722,73.128426 93.347061,80.865875 
	C79.661446,92.136154 69.714401,105.804710 65.072159,122.925934 
	C60.223312,140.809143 60.475681,159.333435 60.193478,177.605362 
	C59.570885,217.916489 60.096539,258.244263 59.933697,298.564331 
	C59.891773,308.945465 61.040127,319.019592 65.033516,328.616241 
	C71.685081,344.600922 83.038239,355.919861 98.862129,363.097534 
	C110.042023,368.168762 121.792259,368.709930 133.675293,368.990082 
	C137.502655,369.080353 141.519348,368.306152 145.130569,369.206421 
	C164.919510,374.139984 176.805908,388.563324 176.857986,408.828735 
	C176.870590,413.729065 175.044159,418.621826 174.196350,423.540955 
	C173.626862,426.845123 173.793640,429.731964 177.259811,431.914551 
	C180.433594,433.913025 182.802689,432.934570 185.278961,431.167999 
	C205.275040,416.903107 225.055588,402.325928 245.291580,388.410736 
	C261.762756,377.084351 280.367035,370.454559 300.245544,369.211243 
	C320.765564,367.927856 341.394775,368.468475 361.968628,367.923767 
	C368.805481,367.742737 375.710297,367.166290 382.426849,365.922028 
	C409.888947,360.834686 429.180359,344.609314 443.046783,320.972076 
	C452.311951,305.178314 453.744568,287.640808 453.819244,270.171143 
	C454.005096,226.678574 455.208282,183.152451 451.997742,138.776947 
z" data-index="1" style="opacity: 1;"></path>

<path fill="#FFFFFF" opacity="1.000000" stroke="none" d="
M241.245331,199.260071 
	C247.629013,191.683716 258.915009,191.822296 265.014893,194.052628 
	C275.038910,197.717789 279.753723,208.016220 278.919037,215.349777 
	C277.590668,227.021378 271.222748,234.461746 260.505188,235.906372 
	C246.941330,237.734695 238.223145,229.602493 235.841293,219.129578 
	C234.080338,211.386688 235.845795,205.159180 241.245331,199.260071 
z" data-index="3"></path>
<path fill="#FFFFFF" opacity="1.000000" stroke="none" d="
M164.230225,193.926163 
	C178.362274,190.669067 187.754822,194.746155 192.620728,207.263153 
	C197.811966,220.617020 186.685944,235.727158 172.393600,236.082550 
	C162.757263,236.322174 156.157669,232.033249 152.018036,223.805435 
	C147.603790,215.031784 149.799042,206.700043 155.438370,199.390396 
	C157.350189,196.912323 160.970810,195.752594 164.230225,193.926163 
z" data-index="4"></path>
<path fill="#FFFFFF" opacity="1.000000" stroke="none" d="
M322.568329,224.075439 
	C320.001251,214.598038 319.600281,205.902771 327.034241,198.348755 
	C333.344421,191.936691 344.383728,191.511826 351.717712,194.402054 
	C358.733063,197.166702 363.963806,205.577728 364.069824,213.614258 
	C364.194946,223.103775 360.130859,229.880081 351.790405,234.000992 
	C342.974701,238.356720 334.768951,236.067627 327.329132,230.591171 
	C325.371582,229.150223 324.329346,226.465912 322.568329,224.075439 
z" data-index="5"></path>
</svg>