<svg version="1.1" id="Layer_1" xmlns="http://www.w3.org/2000/svg" xmlns:xlink="http://www.w3.org/1999/xlink" x="0px" y="0px" width="100%" viewBox="0 0 512 512" enable-background="new 0 0 512 512" xml:space="preserve">

<path fill="#0C0F14" opacity="1.000000" stroke="none" d="
M388.105164,30.866066 
	C435.964905,37.823772 478.547668,79.919525 483.811066,130.693481 
	C485.439606,146.403671 486.607941,162.217987 486.858551,178.002518 
	C487.334686,207.990250 487.251862,237.993759 486.914581,267.985260 
	C486.654724,291.093201 484.549561,313.970428 473.081665,334.818726 
	C452.114441,372.936462 420.633270,396.006073 376.847290,399.907013 
	C358.321747,401.557526 339.570770,400.592621 320.928345,401.058838 
	C313.452148,401.245850 305.929382,401.649475 298.538086,402.717560 
	C283.231659,404.929535 269.619720,411.350739 257.110779,420.372681 
	C239.004776,433.431335 221.011063,446.668243 202.522171,459.167450 
	C181.183243,473.593384 152.552521,464.268005 143.204681,440.349335 
	C139.876556,431.833557 139.778168,423.120056 142.382767,414.372925 
	C145.080978,405.311279 142.503754,401.593353 132.978149,401.088959 
	C124.673378,400.649231 116.242134,401.132355 108.071152,399.877228 
	C65.537354,393.343628 32.517193,358.442627 28.012581,315.675598 
	C27.386093,309.727661 27.055408,303.720978 27.042587,297.740509 
	C26.958630,258.580170 26.588596,219.413345 27.180780,180.261795 
	C27.459543,161.831696 28.520222,143.260910 31.219498,125.049263 
	C38.550735,75.586411 81.402359,35.092491 131.130264,30.124554 
	C149.488205,28.290552 167.994278,27.289223 186.442871,27.138098 
	C235.598495,26.735430 284.763031,26.669895 333.916748,27.175335 
	C351.846893,27.359709 369.756531,29.534315 388.105164,30.866066 
M126.747833,64.149063 
	C93.202423,71.889534 67.174980,100.242134 63.013107,134.361313 
	C61.383698,147.719284 60.253353,161.220215 60.142891,174.666275 
	C59.787033,217.983154 59.847046,261.305664 60.071632,304.624329 
	C60.218563,332.964172 78.345840,357.721863 105.624054,365.378387 
	C116.010406,368.293640 127.304398,368.285828 138.224731,368.907654 
	C151.214996,369.647339 161.785583,374.564972 169.333221,385.188629 
	C177.064011,396.070068 178.766769,408.052704 174.941208,420.864502 
	C173.816223,424.632080 173.159317,428.651093 176.861801,431.410278 
	C180.706635,434.275604 184.143356,431.993927 187.331940,429.717285 
	C204.412323,417.521851 221.528885,405.375854 238.520370,393.057495 
	C257.592194,379.230927 278.747101,370.550537 302.245239,369.213776 
	C323.505310,368.004395 344.852173,368.204834 366.162811,368.025269 
	C408.272064,367.670441 445.454437,335.890533 452.042908,294.223297 
	C453.000885,288.164642 453.445770,281.965302 453.470215,275.828461 
	C453.611450,240.354858 453.773804,204.878448 453.445068,169.407486 
	C453.332764,157.290146 452.337616,145.121735 450.848145,133.087753 
	C446.701630,99.586151 418.821655,69.615562 385.460541,64.070274 
	C369.119568,61.354080 352.343170,60.234386 335.758942,60.189342 
	C277.962494,60.032356 220.162308,60.509392 162.367447,61.116749 
	C150.763550,61.238697 139.176804,62.990612 126.747833,64.149063 
z" data-index="1" style="opacity: 1;"></path>

<path fill="#0C0F14" opacity="1.000000" stroke="none" d="
M255.205948,193.032150 
	C264.454315,192.367065 271.337189,195.726257 275.713959,203.357727 
	C279.917511,210.687210 279.909241,218.243652 275.515137,225.625275 
	C270.266754,234.441910 259.630157,238.110474 249.460144,234.619705 
	C240.483002,231.538376 234.155655,221.589661 235.319168,212.385315 
	C236.711655,201.369644 244.071426,194.045929 255.205948,193.032150 
z" data-index="3"></path>
<path fill="#0C0F14" opacity="1.000000" stroke="none" d="
M169.334045,235.887848 
	C159.874954,234.393997 153.460373,229.533875 150.923279,220.685287 
	C148.489960,212.198624 150.455734,204.562332 157.137939,198.394882 
	C163.713959,192.325394 174.803726,191.058838 182.702499,195.556839 
	C190.914429,200.233170 194.798340,209.701889 192.606689,219.702606 
	C190.735443,228.241272 182.303284,235.315857 173.259171,235.904343 
	C172.099228,235.979828 170.930206,235.915802 169.334045,235.887848 
z" data-index="4"></path>
<path fill="#0C0F14" opacity="1.000000" stroke="none" d="
M361.959351,223.731110 
	C354.147949,239.620392 332.775238,239.835175 324.045288,225.824524 
	C319.038483,217.789124 320.062378,206.175735 326.406464,199.309631 
	C332.487457,192.728271 344.031464,190.884277 352.273346,195.177765 
	C361.240845,199.849258 365.787292,209.743759 363.455109,219.629105 
	C363.151642,220.915482 362.578644,222.138260 361.959351,223.731110 
z" data-index="5"></path>
</svg>