<svg version="1.1" id="Layer_1" xmlns="http://www.w3.org/2000/svg" xmlns:xlink="http://www.w3.org/1999/xlink" x="0px" y="0px" width="100%" viewBox="0 0 512 512" enable-background="new 0 0 512 512" xml:space="preserve">
<path fill="#FFFFFF" opacity="1.000000" stroke="none" d="
M513.000000,449.000000 
	C513.000000,458.020905 513.000000,467.041779 512.678284,476.237793 
	C511.906799,477.047485 511.282654,477.620331 511.032898,478.325745 
	C505.666992,493.483551 495.685242,504.150269 480.007233,508.296417 
	C473.808197,509.935852 467.065582,509.788727 460.558594,509.938660 
	C447.043732,510.249969 435.663330,505.202728 426.117920,495.647217 
	C371.016510,440.487305 315.841461,385.400818 260.812958,330.168304 
	C257.464081,326.807007 255.662216,326.671478 252.229218,330.118225 
	C197.326553,385.240906 142.219376,440.159821 87.305687,495.271545 
	C71.584274,511.049713 52.784718,512.676392 32.577950,508.062073 
	C17.326668,504.579407 8.409661,493.998108 2.968192,479.934540 
	C2.665752,479.152863 1.671998,478.638672 1.000008,478.000000 
	C1.000000,468.979095 1.000000,459.958221 1.394823,450.464966 
	C2.165344,449.762024 2.810731,449.591675 2.877602,449.292175 
	C4.984199,439.855743 10.924624,432.703705 17.427399,426.178009 
	C71.657394,371.757050 126.022331,317.470551 180.361816,263.158722 
	C182.568039,260.953644 184.926834,258.901215 187.241333,256.752777 
	C130.050964,199.559967 73.220688,142.790298 16.469742,85.941437 
	C-4.816036,64.618935 -0.154905,28.720402 23.975948,12.022367 
	C34.172371,4.966660 45.598408,2.801255 57.824120,3.977220 
	C67.067612,4.866332 75.677048,7.794418 82.383217,14.092589 
	C97.760872,28.534666 112.777199,43.369144 127.719055,58.266136 
	C170.677856,101.095978 213.526917,144.035904 256.680084,187.193588 
	C257.825897,185.918854 258.876465,184.635681 260.043152,183.468613 
	C312.121460,131.373581 364.199188,79.277992 416.318695,27.224213 
	C420.281799,23.266092 424.623077,19.689463 428.662170,15.804088 
	C441.670807,3.290563 466.182648,1.447662 481.656525,9.405588 
	C496.349518,16.961946 505.517212,28.899027 508.120514,45.760677 
	C510.638885,62.072124 506.462585,75.977585 494.893768,87.564644 
	C440.139832,142.404694 385.323029,197.181961 330.489777,251.942734 
	C329.224304,253.206558 327.500275,254.011230 324.762970,255.858032 
	C327.565186,257.848175 329.082306,258.640411 330.243652,259.791565 
	C374.700836,303.859070 419.133453,347.951355 463.548584,392.061249 
	C474.663879,403.100220 485.683380,414.235596 496.795959,425.277283 
	C503.209991,431.650391 508.436920,438.735138 511.064240,447.537048 
	C511.250671,448.161652 512.333801,448.518616 513.000000,449.000000 
z" data-index="0" style="opacity: 1;"></path>

<path fill="#000000" opacity="1.000000" stroke="none" d="
M1.000008,478.468628 
	C1.671998,478.638672 2.665752,479.152863 2.968192,479.934540 
	C8.409661,493.998108 17.326668,504.579407 32.577950,508.062073 
	C52.784718,512.676392 71.584274,511.049713 87.305687,495.271545 
	C142.219376,440.159821 197.326553,385.240906 252.229218,330.118225 
	C255.662216,326.671478 257.464081,326.807007 260.812958,330.168304 
	C315.841461,385.400818 371.016510,440.487305 426.117920,495.647217 
	C435.663330,505.202728 447.043732,510.249969 460.558594,509.938660 
	C467.065582,509.788727 473.808197,509.935852 480.007233,508.296417 
	C495.685242,504.150269 505.666992,493.483551 511.032898,478.325745 
	C511.282654,477.620331 511.906799,477.047485 512.678284,476.706451 
	C513.000000,488.990997 513.000000,500.981964 513.000000,512.955933 
	C342.333313,512.955933 171.666656,512.955933 1.000000,512.955933 
	C1.000000,501.587006 1.000000,490.262177 1.000008,478.468628 
z" data-index="2" style="opacity: 1; visibility: hidden;"></path>
</svg>