<svg version="1.1" id="Layer_1" xmlns="http://www.w3.org/2000/svg" xmlns:xlink="http://www.w3.org/1999/xlink" x="0px" y="0px" width="100%" viewBox="0 0 512 512" enable-background="new 0 0 512 512" xml:space="preserve">
<path fill="#0C0F14" opacity="1.000000" stroke="none" d="
M243.000000,0.999998 
	C252.020889,1.000000 261.041779,1.000000 270.731445,1.267763 
	C272.477417,2.299745 273.571167,3.041767 274.629120,3.831743 
	C282.177948,9.468550 290.521729,14.307812 297.139130,20.883619 
	C362.686310,86.019089 427.928558,151.461288 493.315979,216.757767 
	C500.443542,223.875366 507.101044,231.209305 510.608948,240.893723 
	C511.032959,242.064255 512.185242,242.971008 513.000000,244.000000 
	C513.000000,252.354233 513.000000,260.708466 512.730835,269.736359 
	C511.495087,272.129028 510.671509,273.949554 509.536255,275.548859 
	C505.342102,281.457275 501.705688,287.956604 496.634491,293.002563 
	C488.663757,300.933563 478.134796,303.663696 467.074585,304.723114 
	C459.016663,305.494965 459.004700,305.787659 459.002319,313.955292 
	C458.989624,357.397186 459.031494,400.839111 458.954742,444.280884 
	C458.943604,450.588837 458.703827,456.928589 458.039795,463.197479 
	C455.640076,485.852478 443.310242,501.097748 422.595123,509.952789 
	C420.651123,510.783783 418.861359,511.975677 417.000000,513.000000 
	C382.979095,513.000000 348.958221,513.000000 314.306335,512.711121 
	C306.984894,506.923431 305.722687,499.696014 305.871155,491.397675 
	C306.255463,469.918213 306.003204,448.427307 305.998962,426.940948 
	C305.995819,411.117706 306.151917,395.292084 305.927734,379.471893 
	C305.695190,363.059387 295.448517,353.063477 279.186798,353.014130 
	C264.029907,352.968140 248.865616,352.749451 233.720123,353.168427 
	C229.247513,353.292145 224.424149,354.553467 220.463638,356.631592 
	C210.805603,361.699310 208.018173,370.817413 208.013245,381.068909 
	C207.996033,416.879486 207.842926,452.691284 208.109665,488.499847 
	C208.178940,497.801910 207.674377,506.468811 200.000000,513.000000 
	C165.645767,513.000000 131.291550,513.000000 96.263611,512.730835 
	C93.867180,511.498505 92.213562,510.375092 90.410767,509.597565 
	C76.327339,503.523621 65.229782,493.992249 60.115650,479.445435 
	C57.083042,470.819366 55.320713,461.304230 55.221142,452.164490 
	C54.734745,407.517151 55.004765,362.861572 54.997238,318.208923 
	C54.994747,303.423737 55.747356,305.934265 42.212208,304.040070 
	C29.634571,302.279938 18.914831,297.122131 11.209190,286.831512 
	C7.454681,281.817474 4.381569,276.293274 1.000002,271.000000 
	C1.000000,261.979095 1.000000,252.958206 1.268246,243.268799 
	C2.226299,241.671997 3.140604,240.836945 3.570774,239.800873 
	C7.364785,230.662827 13.838843,223.593842 20.724915,216.718155 
	C85.441429,152.099258 150.109619,87.431892 214.727859,22.714737 
	C222.289688,15.141323 229.721542,7.535947 239.941391,3.470660 
	C241.104477,3.008006 241.987244,1.840610 243.000000,0.999998 
z" data-index="0" style="opacity: 1;"></path>

<path fill="#000000" opacity="1.000000" stroke="none" d="
M242.531342,0.999998 
	C241.987244,1.840610 241.104477,3.008006 239.941391,3.470660 
	C229.721542,7.535947 222.289688,15.141323 214.727859,22.714737 
	C150.109619,87.431892 85.441429,152.099258 20.724915,216.718155 
	C13.838843,223.593842 7.364785,230.662827 3.570774,239.800873 
	C3.140604,240.836945 2.226299,241.671997 1.268246,242.800140 
	C1.000000,162.406296 1.000000,81.812592 1.000000,1.000000 
	C81.354095,1.000000 161.708389,1.000000 242.531342,0.999998 
z" data-index="2" style="opacity: 1; visibility: hidden;"></path>

<path fill="#000000" opacity="1.000000" stroke="none" d="
M417.468658,513.000000 
	C418.861359,511.975677 420.651123,510.783783 422.595123,509.952789 
	C443.310242,501.097748 455.640076,485.852478 458.039795,463.197479 
	C458.703827,456.928589 458.943604,450.588837 458.954742,444.280884 
	C459.031494,400.839111 458.989624,357.397186 459.002319,313.955292 
	C459.004700,305.787659 459.016663,305.494965 467.074585,304.723114 
	C478.134796,303.663696 488.663757,300.933563 496.634491,293.002563 
	C501.705688,287.956604 505.342102,281.457275 509.536255,275.548859 
	C510.671509,273.949554 511.495087,272.129028 512.730835,270.205017 
	C513.000000,350.895355 513.000000,431.790680 513.000000,513.000000 
	C481.313141,513.000000 449.625214,513.000000 417.468658,513.000000 
z" data-index="4" style="opacity: 1; visibility: hidden;"></path>

</svg>