<svg version="1.1" id="Layer_1" xmlns="http://www.w3.org/2000/svg" xmlns:xlink="http://www.w3.org/1999/xlink" x="0px" y="0px" width="100%" viewBox="0 0 512 512" enable-background="new 0 0 512 512" xml:space="preserve">
<path fill="#15E5A7" opacity="1.000000" stroke="none" d="
M225.000000,1.000003 
	C246.020889,1.000000 267.041779,1.000000 288.221252,1.357841 
	C289.393738,2.142307 290.371246,2.778573 291.427368,2.961764 
	C298.645477,4.213792 305.961548,5.010393 313.094574,6.623554 
	C337.787048,12.207857 361.242279,21.006882 383.298096,33.612495 
	C399.510712,42.878532 414.928833,53.307468 428.354462,66.172356 
	C440.012421,77.343422 450.964600,89.386963 461.166931,101.909927 
	C477.315918,121.732155 489.128845,144.247101 497.872559,168.210999 
	C504.339874,185.935944 509.379272,204.128632 511.086975,223.069855 
	C511.149658,223.765076 512.336853,224.358917 513.000000,225.000000 
	C513.000000,246.020889 513.000000,267.041779 512.644897,288.214783 
	C511.872986,289.047302 511.201691,289.685028 511.079224,290.414856 
	C510.000580,296.842194 509.219208,303.324768 507.975037,309.718048 
	C502.650085,337.081024 492.671722,362.754333 478.576538,386.714661 
	C463.893372,411.674530 445.283020,433.432678 423.267059,452.336975 
	C409.210022,464.407196 394.095428,474.913025 377.776489,483.512634 
	C350.527496,497.872070 321.737213,507.734375 290.926270,511.084412 
	C290.223053,511.160828 289.639435,512.336914 289.000000,513.000000 
	C267.979095,513.000000 246.958206,513.000000 225.781509,512.643799 
	C224.779282,511.861847 223.976501,511.234772 223.079926,511.040466 
	C209.126480,508.016846 195.017273,505.590485 181.234100,501.933075 
	C163.584137,497.249603 147.058578,489.607391 131.133713,480.640656 
	C115.157310,471.644958 99.923416,461.454407 86.704102,448.855560 
	C74.535706,437.258331 62.995949,424.817139 52.501701,411.690491 
	C36.476974,391.645966 24.467299,369.136047 15.924840,344.848663 
	C9.762055,327.326996 4.661942,309.566406 2.914330,290.977051 
	C2.847325,290.264343 1.663442,289.656647 1.000000,289.000000 
	C1.000000,267.645782 1.000000,246.291550 1.343984,224.795868 
	C2.789521,219.464233 3.980742,214.291199 4.977601,209.080994 
	C10.173136,181.925766 19.361963,156.294952 32.885170,132.092834 
	C47.964649,105.105522 67.429535,81.925148 90.701118,61.717670 
	C104.444229,49.784084 119.362373,39.584469 135.327866,31.005865 
	C162.785156,16.252468 191.907059,6.436798 223.014862,2.917079 
	C223.739609,2.835076 224.341049,1.663409 225.000000,1.000003 
M338.391296,268.747833 
	C334.906372,270.239807 331.284088,271.480438 327.972717,273.289978 
	C324.187256,275.358582 320.852631,278.273499 317.022461,280.235870 
	C272.680298,302.954132 229.357697,301.594299 187.417542,274.128998 
	C175.202225,266.129547 164.807617,266.123444 153.634125,275.346008 
	C126.199402,297.990540 107.904724,326.508423 98.785095,360.923309 
	C96.294533,370.321960 97.459869,379.085388 104.358536,386.012085 
	C114.911270,396.607666 125.178711,407.782867 137.084274,416.682678 
	C180.656937,449.254669 229.811966,462.297455 283.871613,454.999481 
	C334.723907,448.134491 376.621399,424.521637 410.053070,385.712860 
	C415.930878,378.889679 417.781525,370.942047 415.579285,362.362915 
	C406.374298,326.503113 387.320770,296.921661 358.363098,273.800598 
	C352.778076,269.341278 346.376862,267.431732 338.391296,268.747833 
M188.819687,109.322525 
	C169.348999,131.640457 161.298492,157.532150 166.616364,186.667114 
	C175.535339,235.531326 217.823059,266.839264 267.312469,262.117218 
	C318.774200,257.206970 357.237762,206.577667 347.546539,155.684586 
	C340.520081,118.785400 318.900085,93.582962 282.778046,82.982529 
	C246.863724,72.443047 215.459244,82.083633 188.819687,109.322525 
z" data-index="0" style="visibility: visible; opacity: 1;"></path>

<path fill="#000000" opacity="1.000000" stroke="none" d="
M1.000000,289.468658 
	C1.663442,289.656647 2.847325,290.264343 2.914330,290.977051 
	C4.661942,309.566406 9.762055,327.326996 15.924840,344.848663 
	C24.467299,369.136047 36.476974,391.645966 52.501701,411.690491 
	C62.995949,424.817139 74.535706,437.258331 86.704102,448.855560 
	C99.923416,461.454407 115.157310,471.644958 131.133713,480.640656 
	C147.058578,489.607391 163.584137,497.249603 181.234100,501.933075 
	C195.017273,505.590485 209.126480,508.016846 223.079926,511.040466 
	C223.976501,511.234772 224.779282,511.861847 225.312851,512.643799 
	C150.406296,513.000000 75.812599,513.000000 1.000000,513.000000 
	C1.000000,438.645905 1.000000,364.291626 1.000000,289.468658 
z" data-index="2" style="opacity: 1; visibility: hidden;"></path>

<path fill="#000000" opacity="1.000000" stroke="none" d="
M224.531342,1.000003 
	C224.341049,1.663409 223.739609,2.835076 223.014862,2.917079 
	C191.907059,6.436798 162.785156,16.252468 135.327866,31.005865 
	C119.362373,39.584469 104.444229,49.784084 90.701118,61.717670 
	C67.429535,81.925148 47.964649,105.105522 32.885170,132.092834 
	C19.361963,156.294952 10.173136,181.925766 4.977601,209.080994 
	C3.980742,214.291199 2.789521,219.464233 1.343984,224.327209 
	C1.000000,149.739456 1.000000,75.478920 1.000000,1.000000 
	C75.354088,1.000000 149.708389,1.000000 224.531342,1.000003 
z" data-index="4" style="visibility: hidden; opacity: 1;"></path>
<path fill="#FEFFFF" opacity="1.000000" stroke="none" d="
M338.797394,268.662506 
	C346.376862,267.431732 352.778076,269.341278 358.363098,273.800598 
	C387.320770,296.921661 406.374298,326.503113 415.579285,362.362915 
	C417.781525,370.942047 415.930878,378.889679 410.053070,385.712860 
	C376.621399,424.521637 334.723907,448.134491 283.871613,454.999481 
	C229.811966,462.297455 180.656937,449.254669 137.084274,416.682678 
	C125.178711,407.782867 114.911270,396.607666 104.358536,386.012085 
	C97.459869,379.085388 96.294533,370.321960 98.785095,360.923309 
	C107.904724,326.508423 126.199402,297.990540 153.634125,275.346008 
	C164.807617,266.123444 175.202225,266.129547 187.417542,274.128998 
	C229.357697,301.594299 272.680298,302.954132 317.022461,280.235870 
	C320.852631,278.273499 324.187256,275.358582 327.972717,273.289978 
	C331.284088,271.480438 334.906372,270.239807 338.797394,268.662506 
z" data-index="5" style="opacity: 1;"></path>
<path fill="#FEFFFF" opacity="1.000000" stroke="none" d="
M189.057922,109.059799 
	C215.459244,82.083633 246.863724,72.443047 282.778046,82.982529 
	C318.900085,93.582962 340.520081,118.785400 347.546539,155.684586 
	C357.237762,206.577667 318.774200,257.206970 267.312469,262.117218 
	C217.823059,266.839264 175.535339,235.531326 166.616364,186.667114 
	C161.298492,157.532150 169.348999,131.640457 189.057922,109.059799 
z" data-index="6"></path>
</svg>