<svg xmlns="http://www.w3.org/2000/svg" width="512" height="512" viewBox="0 0 512 512" version="1.1"><path d="M 224.293 1.538 C 168.318 8.738, 114.912 34.991, 74.952 74.952 C 40.321 109.582, 15.544 155.067, 5.132 203.124 C -0.057 227.074, -1.555 261.997, 1.535 286.959 C 8.471 342.984, 34.704 396.800, 74.454 436.545 C 95.706 457.795, 114.394 471.184, 142.500 485.298 C 179.270 503.763, 214.446 512, 256.524 512 C 316.160 512, 371.096 492.653, 417.501 455.308 C 429.170 445.917, 452.411 422.304, 454.691 417.521 C 457.931 410.728, 457.168 409.652, 429.493 381.993 L 403.985 356.500 398.857 356.500 C 393.818 356.500, 393.640 356.605, 388.664 362.500 C 368.553 386.329, 345.381 403.549, 319.477 413.916 C 244.163 444.054, 157.909 416.763, 113.592 348.773 C 101.982 330.961, 93.115 309.164, 88.798 287.828 C 86.852 278.209, 86.507 273.408, 86.507 256 C 86.507 238.592, 86.852 233.791, 88.798 224.172 C 98.112 178.134, 124.680 138.659, 163.227 113.581 C 189.710 96.353, 218.538 87.310, 250.343 86.256 C 283.287 85.164, 311.416 91.711, 338.375 106.746 C 348.069 112.152, 365.620 124.681, 369.437 128.920 L 371.375 131.071 347.300 155.286 C 334.059 168.604, 322.554 180.850, 321.733 182.500 C 317.798 190.409, 319.202 199.372, 325.535 206.770 C 331.986 214.306, 329.054 214.085, 418.088 213.774 L 496.500 213.500 501.272 210.695 C 503.897 209.152, 507.272 206.035, 508.772 203.768 L 511.500 199.647 511.799 119.073 C 511.996 66.125, 511.747 37.288, 511.073 34.965 C 509.792 30.545, 504.737 25.263, 499.500 22.871 C 494.515 20.594, 485.951 20.470, 481.700 22.614 C 479.940 23.501, 468.128 34.536, 455.451 47.135 L 432.401 70.044 425.951 64.415 C 385.463 29.086, 335.171 6.859, 282.500 1.015 C 270.139 -0.356, 236.684 -0.056, 224.293 1.538" stroke="none" fill="#fffcfc" fill-rule="evenodd"/><path d="" stroke="none" fill="#fcfcfc" fill-rule="evenodd"/></svg>