<svg version="1.1" id="Layer_1" xmlns="http://www.w3.org/2000/svg" xmlns:xlink="http://www.w3.org/1999/xlink" x="0px" y="0px" width="100%" viewBox="0 0 512 512" enable-background="new 0 0 512 512" xml:space="preserve">
<path fill="#FFFFFF" opacity="1.000000" stroke="none" d="
M227.000000,0.999998 
	C246.687561,1.000000 266.375122,1.000000 286.237793,1.321707 
	C287.045715,2.093066 287.617432,2.707578 288.320312,2.968079 
	C302.934601,8.384359 313.866028,17.655611 317.893890,33.150032 
	C320.046661,41.431370 320.791473,50.078709 322.170380,58.552662 
	C330.459961,62.107704 339.467712,65.888733 348.394623,69.851898 
	C350.892395,70.960800 352.545166,71.175095 354.790863,68.904900 
	C358.796844,64.855225 363.060486,60.861885 367.834229,57.811935 
	C377.460571,51.661617 388.004913,49.236877 399.620819,50.874100 
	C409.429688,52.256630 418.007385,55.701038 425.058289,62.598778 
	C433.872742,71.221718 442.708160,79.837219 451.190948,88.781746 
	C462.516418,100.723648 465.850006,115.088753 462.483368,130.998352 
	C460.085297,142.331039 453.984589,151.594803 445.285828,159.123001 
	C443.039154,161.067398 442.813019,162.794144 444.018463,165.456955 
	C448.100433,174.474060 451.928436,183.606155 455.819794,192.616226 
	C462.484589,193.101746 469.576874,192.738037 476.229736,194.275497 
	C493.174957,198.191528 504.636261,208.875397 511.030853,225.045059 
	C511.342499,225.833054 512.328186,226.354446 513.000000,227.000000 
	C513.000000,246.687561 513.000000,266.375122 512.680298,286.238037 
	C511.909424,287.043762 511.300415,287.613220 511.030426,288.313477 
	C505.449463,302.787323 496.433533,313.971344 480.801208,317.912018 
	C472.656494,319.965210 464.193756,320.756744 455.319244,322.209045 
	C452.092163,329.987091 448.719299,338.956940 444.620392,347.581696 
	C442.983673,351.025574 443.185120,352.920349 445.890320,355.471558 
	C458.596436,367.454590 465.569031,381.640167 463.096313,399.720184 
	C461.778656,409.354767 458.404907,417.823242 451.672272,424.763702 
	C442.972321,433.732208 434.210327,442.655182 425.153259,451.258972 
	C413.205048,462.609222 398.808655,465.749634 382.930420,462.431946 
	C371.573700,460.059021 362.333588,453.929443 354.825653,445.224121 
	C352.815765,442.893768 351.073792,442.908051 348.481506,444.071960 
	C339.459564,448.122681 330.336914,451.949219 321.400269,455.797455 
	C320.895844,462.556549 321.264221,469.654968 319.694519,476.295258 
	C315.710449,493.149261 305.189819,504.728302 288.957336,511.031342 
	C288.168945,511.337463 287.646362,512.328064 287.000000,513.000000 
	C267.312439,513.000000 247.624878,513.000000 227.761963,512.680298 
	C226.956009,511.909363 226.386230,511.300568 225.685837,511.030334 
	C211.210602,505.445374 200.011032,496.433472 196.089615,480.789520 
	C194.007431,472.482880 193.202377,463.856079 191.809525,455.304413 
	C183.798874,451.984619 174.925232,448.661774 166.402390,444.602417 
	C162.940048,442.953339 161.042984,443.204071 158.513519,445.911346 
	C146.555313,458.710083 132.258179,465.446594 114.245773,463.084503 
	C104.781601,461.843384 96.409554,458.551544 89.575836,451.978241 
	C80.449135,443.199310 71.390030,434.327789 62.714207,425.108032 
	C51.463017,413.151428 48.222004,398.847229 51.546066,382.872101 
	C53.928898,371.420441 60.223785,362.399048 68.784172,354.826355 
	C71.090485,352.786163 71.085968,351.065216 69.923996,348.476166 
	C65.874222,339.452667 62.047649,330.328979 58.244278,321.494324 
	C51.265980,320.892151 44.013458,321.151703 37.222874,319.505585 
	C20.381163,315.423035 8.859482,304.893829 2.938584,288.434357 
	C2.712262,287.805237 1.664810,287.471436 0.999996,287.000000 
	C1.000000,267.312439 1.000000,247.624878 1.391052,227.465317 
	C2.183050,226.596649 2.781970,226.271957 2.956193,225.792847 
	C8.289418,211.126297 17.586763,200.212982 33.038551,196.119705 
	C41.308601,193.928925 49.971336,193.220490 58.691093,191.805084 
	C61.945557,183.917068 65.171417,175.011444 69.314270,166.555038 
	C71.149231,162.809509 70.697632,160.935013 67.876488,158.266937 
	C55.314331,146.386383 48.465454,132.305862 50.904358,114.416054 
	C52.241203,104.610054 55.665367,96.013046 62.576561,88.959930 
	C71.207886,80.151367 79.842232,71.335220 88.759430,62.819912 
	C100.697800,51.419590 115.119621,48.257130 130.985947,51.519386 
	C142.329575,53.851730 151.579468,60.011337 159.114059,68.703117 
	C161.047195,70.933159 162.768448,71.206047 165.446915,69.991173 
	C174.462982,65.901787 183.597824,62.074261 192.617554,58.176666 
	C193.101196,51.523701 192.736374,44.430630 194.272980,37.776657 
	C198.187027,20.827669 208.873291,9.365706 225.044525,2.969177 
	C225.832672,2.657425 226.354279,1.671815 227.000000,0.999998 
M419.969238,186.740479 
	C416.619202,180.318741 413.312103,173.874146 409.907471,167.481476 
	C406.259399,160.631653 407.236542,153.261322 412.618927,147.872696 
	C417.093140,143.393311 421.682587,139.022568 426.020874,134.415237 
	C434.939392,124.943657 434.827881,117.596207 428.321198,110.074562 
	C420.820435,101.403778 412.374329,93.518791 404.019165,85.631111 
	C398.983826,80.877480 390.043030,78.869133 383.489349,85.031487 
	C377.345215,90.808800 371.414520,96.833626 365.001953,102.293922 
	C362.737579,104.222054 359.421600,105.210472 356.418518,105.911736 
	C350.883850,107.204147 346.663971,103.688202 341.897522,101.618050 
	C328.254517,95.692650 314.347656,90.359459 300.446777,85.049339 
	C293.384613,82.351608 290.019226,78.109276 290.003174,70.573891 
	C289.988251,63.575668 290.262115,56.565109 289.934906,49.582184 
	C289.507843,40.468319 285.518524,33.220425 277.342865,32.478363 
	C263.831146,31.251974 250.081146,31.541643 236.519775,32.474556 
	C230.422760,32.893982 225.745758,37.909611 225.109146,44.531834 
	C224.306335,52.882656 224.197708,61.310547 224.036865,69.709923 
	C223.868118,78.521286 221.358597,82.368507 212.889252,84.996544 
	C196.915817,89.953079 181.357513,95.784813 166.950684,104.476685 
	C161.100861,108.005989 152.948532,106.467255 148.094788,101.612259 
	C143.500870,97.017151 138.976334,92.350189 134.301743,87.838699 
	C125.181419,79.036591 115.998901,79.058456 107.329659,88.112793 
	C100.532814,95.211548 93.345543,101.935890 86.527687,109.015297 
	C80.249977,115.533852 79.139771,123.512764 85.212318,130.589737 
	C90.589752,136.856613 96.729927,142.472748 102.047180,148.785660 
	C104.064102,151.180267 105.168999,154.615173 105.901482,157.759506 
	C107.189430,163.288239 103.630882,167.490402 101.531662,172.253326 
	C95.597618,185.716995 90.307564,199.473755 85.071838,213.232285 
	C82.169289,220.859650 78.364792,223.986755 70.398216,223.997955 
	C63.399975,224.007797 56.386627,223.710373 49.407291,224.073715 
	C40.781471,224.522812 33.383068,228.125000 32.605782,236.356216 
	C31.315958,250.014954 31.654499,263.921967 32.528797,277.646576 
	C32.906742,283.579529 37.889366,288.197784 44.211723,288.858643 
	C52.881111,289.764862 61.653023,289.777405 70.385475,289.967499 
	C78.327728,290.140472 82.632500,293.005859 84.973526,300.788483 
	C89.840904,316.969788 95.760086,332.656128 104.598503,347.174500 
	C107.965401,352.705109 106.376083,361.112274 101.829819,365.664825 
	C97.238510,370.262451 92.480110,374.706757 88.091454,379.490326 
	C79.434113,388.926697 78.943260,396.338409 85.909416,404.183624 
	C93.418205,412.639954 101.735893,420.388702 109.847496,428.295502 
	C115.454399,433.760803 124.467926,434.167847 130.356262,429.019073 
	C136.700180,423.471985 142.488190,417.284210 148.894196,411.815796 
	C151.164093,409.878113 154.434860,408.773285 157.431168,408.098999 
	C163.124588,406.817749 167.479034,410.401550 172.395218,412.564117 
	C185.861221,418.487518 199.641571,423.714996 213.401917,428.943085 
	C220.850876,431.773193 223.990524,435.747894 223.998535,443.773926 
	C224.005508,450.772186 223.715698,457.784882 224.070923,464.765076 
	C224.530609,473.798004 229.450104,481.194244 238.955322,481.955933 
	C246.007706,482.521027 253.092346,482.884674 260.165100,482.928040 
	C265.401001,482.960175 270.663361,482.533081 275.873474,481.949463 
	C282.663025,481.188995 288.076752,476.531555 288.854736,469.614441 
	C289.809906,461.121765 289.791199,452.508209 289.964996,443.942261 
	C290.135620,435.530029 292.800232,431.491486 300.959442,429.014008 
	C316.971130,424.152130 332.491211,418.225952 346.938538,409.624878 
	C352.940643,406.051544 360.940826,407.442291 365.792175,412.286072 
	C370.390259,416.876984 374.874390,421.588776 379.604126,426.039673 
	C389.059357,434.937531 396.424042,434.825012 403.945374,428.303589 
	C412.608337,420.792297 420.504669,412.359192 428.387421,403.999695 
	C433.105194,398.996521 435.152435,390.052032 428.950958,383.468719 
	C423.168152,377.329803 417.175110,371.373840 411.673981,364.993011 
	C409.819672,362.842163 408.726166,359.738068 408.097992,356.890289 
	C406.850250,351.233582 410.215881,346.802734 412.381317,341.867554 
	C418.356873,328.248993 423.644470,314.321442 428.952301,300.419952 
	C431.637726,293.386841 435.909851,290.018127 443.453217,290.002991 
	C450.451447,289.988953 457.460175,290.240784 464.445312,289.938293 
	C472.934540,289.570679 479.652100,285.791565 481.235809,278.150024 
	C484.155334,264.063019 484.212463,249.820145 481.157959,235.706314 
	C479.830414,229.572235 475.509796,225.730331 469.438995,225.125626 
	C460.927673,224.277802 452.328979,224.216431 443.763092,224.033539 
	C435.741699,223.862289 431.568115,220.935608 428.985596,213.374985 
	C426.037659,204.744568 422.999451,196.144989 419.969238,186.740479 
z" data-index="0" style="opacity: 1;"></path>

<path fill="#000000" opacity="1.000000" stroke="none" d="
M287.468658,513.000000 
	C287.646362,512.328064 288.168945,511.337463 288.957336,511.031342 
	C305.189819,504.728302 315.710449,493.149261 319.694519,476.295258 
	C321.264221,469.654968 320.895844,462.556549 321.400269,455.797455 
	C330.336914,451.949219 339.459564,448.122681 348.481506,444.071960 
	C351.073792,442.908051 352.815765,442.893768 354.825653,445.224121 
	C362.333588,453.929443 371.573700,460.059021 382.930420,462.431946 
	C398.808655,465.749634 413.205048,462.609222 425.153259,451.258972 
	C434.210327,442.655182 442.972321,433.732208 451.672272,424.763702 
	C458.404907,417.823242 461.778656,409.354767 463.096313,399.720184 
	C465.569031,381.640167 458.596436,367.454590 445.890320,355.471558 
	C443.185120,352.920349 442.983673,351.025574 444.620392,347.581696 
	C448.719299,338.956940 452.092163,329.987091 455.319244,322.209045 
	C464.193756,320.756744 472.656494,319.965210 480.801208,317.912018 
	C496.433533,313.971344 505.449463,302.787323 511.030426,288.313477 
	C511.300415,287.613220 511.909424,287.043762 512.680298,286.706696 
	C513.000000,362.260376 513.000000,437.520752 513.000000,513.000000 
	C437.979248,513.000000 362.958282,513.000000 287.468658,513.000000 
z" data-index="2" style="opacity: 1; visibility: hidden;"></path>

<path fill="#000000" opacity="1.000000" stroke="none" d="
M513.000000,226.531342 
	C512.328186,226.354446 511.342499,225.833054 511.030853,225.045059 
	C504.636261,208.875397 493.174957,198.191528 476.229736,194.275497 
	C469.576874,192.738037 462.484589,193.101746 455.819794,192.616226 
	C451.928436,183.606155 448.100433,174.474060 444.018463,165.456955 
	C442.813019,162.794144 443.039154,161.067398 445.285828,159.123001 
	C453.984589,151.594803 460.085297,142.331039 462.483368,130.998352 
	C465.850006,115.088753 462.516418,100.723648 451.190948,88.781746 
	C442.708160,79.837219 433.872742,71.221718 425.058289,62.598778 
	C418.007385,55.701038 409.429688,52.256630 399.620819,50.874100 
	C388.004913,49.236877 377.460571,51.661617 367.834229,57.811935 
	C363.060486,60.861885 358.796844,64.855225 354.790863,68.904900 
	C352.545166,71.175095 350.892395,70.960800 348.394623,69.851898 
	C339.467712,65.888733 330.459961,62.107704 322.170380,58.552662 
	C320.791473,50.078709 320.046661,41.431370 317.893890,33.150032 
	C313.866028,17.655611 302.934601,8.384359 288.320312,2.968079 
	C287.617432,2.707578 287.045715,2.093066 286.706451,1.321707 
	C362.260376,1.000000 437.520752,1.000000 513.000000,1.000000 
	C513.000000,76.020752 513.000000,151.041718 513.000000,226.531342 
z" data-index="4" style="opacity: 1; visibility: hidden;"></path>

<path fill="#FFFFFF" opacity="1.000000" stroke="none" d="
M326.201477,168.703735 
	C336.577332,176.939011 345.097321,186.387772 351.797394,197.368713 
	C359.125214,209.378632 364.839478,222.147461 366.904083,236.168961 
	C368.094147,244.251068 369.128510,252.500610 368.848816,260.627167 
	C368.052094,283.777374 360.727051,304.789459 346.972534,323.623901 
	C332.982635,342.780640 314.506989,355.521301 292.335785,363.212982 
	C278.937592,367.861115 265.009796,369.896729 250.934204,368.880280 
	C226.522263,367.117401 204.568100,358.851929 185.427048,343.089233 
	C168.877518,329.460693 157.775894,312.381744 150.825378,292.380249 
	C146.171616,278.988129 144.131454,265.067108 145.117249,250.992157 
	C146.828308,226.561676 155.109375,204.613846 170.872208,185.468872 
	C184.497818,168.919678 201.564133,157.810303 221.572891,150.852905 
	C235.132309,146.138062 249.216827,144.093536 263.449432,145.129684 
	C285.934937,146.766663 306.670685,153.740524 324.598145,167.930450 
	C324.957886,168.215195 325.496674,168.273712 326.201477,168.703735 
M262.229736,337.999908 
	C263.809784,337.667328 265.374939,337.203400 266.972168,337.021973 
	C289.606384,334.451447 307.973511,323.690094 321.369781,305.811188 
	C335.957520,286.342133 341.527222,264.102448 335.994568,239.801559 
	C331.590637,220.458374 321.699615,204.238373 305.819733,192.600250 
	C288.504578,179.910233 269.009003,173.869339 246.984528,176.863129 
	C224.381714,179.935547 206.039764,190.373383 192.606552,208.205002 
	C177.944244,227.668106 172.489487,249.945419 178.016495,274.222748 
	C182.458099,293.732422 192.596298,309.863953 208.583893,321.738068 
	C224.073090,333.242004 241.819901,338.728424 262.229736,337.999908 
z" data-index="6" style="opacity: 1;"></path>

</svg>