<svg width="176" height="43" viewBox="0 0 176 43" fill="none" xmlns="http://www.w3.org/2000/svg">
<path d="M12.6813 42.8796C10.0756 42.8796 7.89849 42.4164 6.14991 41.4898C4.40134 40.5632 3.08134 39.139 2.18991 37.2173C1.29849 35.2612 0.801343 32.7388 0.698486 29.6503L8.56706 28.4663C8.60134 30.2508 8.75563 31.6922 9.02991 32.7903C9.33849 33.8885 9.74992 34.6778 10.2642 35.1582C10.8128 35.6387 11.4642 35.8789 12.2185 35.8789C13.1785 35.8789 13.7956 35.5529 14.0699 34.9008C14.3785 34.2488 14.5328 33.5625 14.5328 32.8418C14.5328 31.1259 14.1213 29.6846 13.2985 28.5178C12.4756 27.3167 11.3613 26.1156 9.95563 24.9145L6.35563 21.7744C4.77849 20.436 3.44134 18.9261 2.3442 17.2445C1.28134 15.5286 0.749916 13.4181 0.749916 10.9129C0.749916 7.37825 1.79563 4.68433 3.88706 2.83119C5.97849 0.94373 8.8242 0 12.4242 0C14.6528 0 16.4356 0.377492 17.7728 1.13248C19.1442 1.88746 20.1728 2.88267 20.8585 4.11809C21.5785 5.3192 22.0585 6.60611 22.2985 7.97881C22.5728 9.31718 22.7271 10.6041 22.7613 11.8395L14.8413 12.8176C14.8071 11.5821 14.7213 10.5183 14.5842 9.62604C14.4813 8.69947 14.2413 7.99596 13.8642 7.51552C13.4871 7.00076 12.9042 6.74338 12.1156 6.74338C11.2585 6.74338 10.6242 7.10371 10.2128 7.82438C9.83563 8.54504 9.64706 9.26571 9.64706 9.98637C9.64706 11.5307 10.0071 12.8004 10.7271 13.7956C11.4813 14.7565 12.4585 15.7689 13.6585 16.8327L17.1042 19.8698C18.9213 21.4141 20.4471 23.1643 21.6813 25.1204C22.9499 27.0765 23.5842 29.4958 23.5842 32.3785C23.5842 34.3346 23.1385 36.1191 22.2471 37.732C21.3556 39.3106 20.0871 40.5632 18.4413 41.4898C16.8299 42.4164 14.9099 42.8796 12.6813 42.8796Z" fill="#F1F1F1"/>
<path d="M31.3845 42.2619L26.3445 0.566237H34.1616L36.6302 24.863L39.7673 0.617715H45.8873L49.1788 24.7086L51.6988 0.566237H59.413L54.4245 42.2619H46.4016L42.853 17.0901L39.5102 42.2619H31.3845Z" fill="#F1F1F1"/>
<path d="M75.8324 42.8796C72.7124 42.8796 70.2438 42.3306 68.4267 41.2324C66.6096 40.1342 65.3067 38.5556 64.5181 36.4966C63.7296 34.4375 63.3353 31.9838 63.3353 29.1355V13.6412C63.3353 10.7585 63.7296 8.30482 64.5181 6.28009C65.3067 4.25536 66.6096 2.71108 68.4267 1.64724C70.2438 0.549079 72.7124 0 75.8324 0C78.9867 0 81.4724 0.549079 83.2896 1.64724C85.141 2.71108 86.461 4.25536 87.2496 6.28009C88.0381 8.30482 88.4324 10.7585 88.4324 13.6412V29.1355C88.4324 31.9838 88.0381 34.4375 87.2496 36.4966C86.461 38.5556 85.141 40.1342 83.2896 41.2324C81.4724 42.3306 78.9867 42.8796 75.8324 42.8796ZM75.8324 36.3422C76.7924 36.3422 77.4953 36.1019 77.941 35.6215C78.3867 35.1411 78.6781 34.5233 78.8153 33.7684C78.9524 33.0134 79.021 32.2412 79.021 31.4519V11.3762C79.021 10.5526 78.9524 9.78047 78.8153 9.0598C78.6781 8.30482 78.3867 7.68711 77.941 7.20666C77.4953 6.72622 76.7924 6.48599 75.8324 6.48599C74.941 6.48599 74.2724 6.72622 73.8267 7.20666C73.381 7.68711 73.0896 8.30482 72.9524 9.0598C72.8153 9.78047 72.7467 10.5526 72.7467 11.3762V31.4519C72.7467 32.2412 72.7981 33.0134 72.901 33.7684C73.0381 34.5233 73.3124 35.1411 73.7238 35.6215C74.1696 36.1019 74.8724 36.3422 75.8324 36.3422Z" fill="#F1F1F1"/>
<path d="M105.966 42.8796C102.846 42.8796 100.378 42.3306 98.5606 41.2324C96.7435 40.1342 95.4406 38.5556 94.6521 36.4966C93.8635 34.4375 93.4692 31.9838 93.4692 29.1355V13.6412C93.4692 10.7585 93.8635 8.30482 94.6521 6.28009C95.4406 4.25536 96.7435 2.71108 98.5606 1.64724C100.378 0.549079 102.846 0 105.966 0C109.121 0 111.606 0.549079 113.423 1.64724C115.275 2.71108 116.595 4.25536 117.383 6.28009C118.172 8.30482 118.566 10.7585 118.566 13.6412V29.1355C118.566 31.9838 118.172 34.4375 117.383 36.4966C116.595 38.5556 115.275 40.1342 113.423 41.2324C111.606 42.3306 109.121 42.8796 105.966 42.8796ZM105.966 36.3422C106.926 36.3422 107.629 36.1019 108.075 35.6215C108.521 35.1411 108.812 34.5233 108.949 33.7684C109.086 33.0134 109.155 32.2412 109.155 31.4519V11.3762C109.155 10.5526 109.086 9.78047 108.949 9.0598C108.812 8.30482 108.521 7.68711 108.075 7.20666C107.629 6.72622 106.926 6.48599 105.966 6.48599C105.075 6.48599 104.406 6.72622 103.961 7.20666C103.515 7.68711 103.223 8.30482 103.086 9.0598C102.949 9.78047 102.881 10.5526 102.881 11.3762V31.4519C102.881 32.2412 102.932 33.0134 103.035 33.7684C103.172 34.5233 103.446 35.1411 103.858 35.6215C104.303 36.1019 105.006 36.3422 105.966 36.3422Z" fill="#F1F1F1"/>
<path d="M135.226 42.8796C132.62 42.8796 130.443 42.4164 128.695 41.4898C126.946 40.5632 125.626 39.139 124.735 37.2173C123.843 35.2612 123.346 32.7388 123.243 29.6503L131.112 28.4663C131.146 30.2508 131.3 31.6922 131.575 32.7903C131.883 33.8885 132.295 34.6778 132.809 35.1582C133.357 35.6387 134.009 35.8789 134.763 35.8789C135.723 35.8789 136.34 35.5529 136.615 34.9008C136.923 34.2488 137.077 33.5625 137.077 32.8418C137.077 31.1259 136.666 29.6846 135.843 28.5178C135.02 27.3167 133.906 26.1156 132.5 24.9145L128.9 21.7744C127.323 20.436 125.986 18.9261 124.889 17.2445C123.826 15.5286 123.295 13.4181 123.295 10.9129C123.295 7.37825 124.34 4.68433 126.432 2.83119C128.523 0.94373 131.369 0 134.969 0C137.197 0 138.98 0.377492 140.317 1.13248C141.689 1.88746 142.717 2.88267 143.403 4.11809C144.123 5.3192 144.603 6.60611 144.843 7.97881C145.117 9.31718 145.272 10.6041 145.306 11.8395L137.386 12.8176C137.352 11.5821 137.266 10.5183 137.129 9.62604C137.026 8.69947 136.786 7.99596 136.409 7.51552C136.032 7.00076 135.449 6.74338 134.66 6.74338C133.803 6.74338 133.169 7.10371 132.757 7.82438C132.38 8.54504 132.192 9.26571 132.192 9.98637C132.192 11.5307 132.552 12.8004 133.272 13.7956C134.026 14.7565 135.003 15.7689 136.203 16.8327L139.649 19.8698C141.466 21.4141 142.992 23.1643 144.226 25.1204C145.495 27.0765 146.129 29.4958 146.129 32.3785C146.129 34.3346 145.683 36.1191 144.792 37.732C143.9 39.3106 142.632 40.5632 140.986 41.4898C139.375 42.4164 137.455 42.8796 135.226 42.8796Z" fill="#F1F1F1"/>
<path d="M150.741 42.2619V0.566237H159.946V17.4504H166.426V0.566237H175.632V42.2619H166.426V24.0394H159.946V42.2619H150.741Z" fill="#F1F1F1"/>
</svg>
