<svg width="240" height="68" viewBox="0 0 240 68" fill="none" xmlns="http://www.w3.org/2000/svg">
<path d="M45.6814 42.8796C43.0756 42.8796 40.8985 42.4164 39.1499 41.4898C37.4014 40.5632 36.0814 39.139 35.1899 37.2173C34.2985 35.2612 33.8014 32.7388 33.6985 29.6503L41.5671 28.4663C41.6014 30.2508 41.7556 31.6922 42.0299 32.7903C42.3385 33.8885 42.7499 34.6778 43.2642 35.1582C43.8128 35.6387 44.4642 35.8789 45.2185 35.8789C46.1785 35.8789 46.7956 35.5529 47.0699 34.9008C47.3785 34.2488 47.5328 33.5625 47.5328 32.8418C47.5328 31.1259 47.1214 29.6846 46.2985 28.5178C45.4757 27.3167 44.3614 26.1156 42.9556 24.9145L39.3556 21.7744C37.7785 20.436 36.4414 18.9261 35.3442 17.2445C34.2814 15.5286 33.7499 13.4181 33.7499 10.9129C33.7499 7.37825 34.7956 4.68433 36.8871 2.83119C38.9785 0.94373 41.8242 0 45.4242 0C47.6528 0 49.4356 0.377492 50.7728 1.13248C52.1442 1.88746 53.1728 2.88267 53.8585 4.11809C54.5785 5.3192 55.0585 6.60611 55.2985 7.97881C55.5728 9.31718 55.7271 10.6041 55.7614 11.8395L47.8414 12.8176C47.8071 11.5821 47.7214 10.5183 47.5842 9.62604C47.4814 8.69947 47.2414 7.99596 46.8642 7.51552C46.4871 7.00076 45.9042 6.74338 45.1156 6.74338C44.2585 6.74338 43.6242 7.10371 43.2128 7.82438C42.8356 8.54504 42.6471 9.26571 42.6471 9.98637C42.6471 11.5307 43.0071 12.8004 43.7271 13.7956C44.4814 14.7565 45.4585 15.7689 46.6585 16.8327L50.1042 19.8698C51.9214 21.4141 53.4471 23.1643 54.6814 25.1204C55.9499 27.0765 56.5842 29.4958 56.5842 32.3785C56.5842 34.3346 56.1385 36.1191 55.2471 37.732C54.3556 39.3106 53.0871 40.5632 51.4414 41.4898C49.8299 42.4164 47.9099 42.8796 45.6814 42.8796Z" fill="#F1F1F1"/>
<path d="M64.3845 42.2619L59.3445 0.566237H67.1616L69.6302 24.863L72.7673 0.617715H78.8873L82.1788 24.7086L84.6988 0.566237H92.4131L87.4245 42.2619H79.4016L75.8531 17.0901L72.5102 42.2619H64.3845Z" fill="#F1F1F1"/>
<path d="M108.832 42.8796C105.712 42.8796 103.244 42.3306 101.427 41.2324C99.6096 40.1342 98.3067 38.5556 97.5182 36.4966C96.7296 34.4375 96.3353 31.9838 96.3353 29.1355V13.6412C96.3353 10.7585 96.7296 8.30482 97.5182 6.28009C98.3067 4.25536 99.6096 2.71108 101.427 1.64724C103.244 0.549079 105.712 0 108.832 0C111.987 0 114.472 0.549079 116.29 1.64724C118.141 2.71108 119.461 4.25536 120.25 6.28009C121.038 8.30482 121.432 10.7585 121.432 13.6412V29.1355C121.432 31.9838 121.038 34.4375 120.25 36.4966C119.461 38.5556 118.141 40.1342 116.29 41.2324C114.472 42.3306 111.987 42.8796 108.832 42.8796ZM108.832 36.3422C109.792 36.3422 110.495 36.1019 110.941 35.6215C111.387 35.1411 111.678 34.5233 111.815 33.7684C111.952 33.0134 112.021 32.2412 112.021 31.4519V11.3762C112.021 10.5526 111.952 9.78047 111.815 9.0598C111.678 8.30482 111.387 7.68711 110.941 7.20666C110.495 6.72622 109.792 6.48599 108.832 6.48599C107.941 6.48599 107.272 6.72622 106.827 7.20666C106.381 7.68711 106.09 8.30482 105.952 9.0598C105.815 9.78047 105.747 10.5526 105.747 11.3762V31.4519C105.747 32.2412 105.798 33.0134 105.901 33.7684C106.038 34.5233 106.312 35.1411 106.724 35.6215C107.17 36.1019 107.872 36.3422 108.832 36.3422Z" fill="#F1F1F1"/>
<path d="M138.966 42.8796C135.846 42.8796 133.378 42.3306 131.561 41.2324C129.744 40.1342 128.441 38.5556 127.652 36.4966C126.864 34.4375 126.469 31.9838 126.469 29.1355V13.6412C126.469 10.7585 126.864 8.30482 127.652 6.28009C128.441 4.25536 129.744 2.71108 131.561 1.64724C133.378 0.549079 135.846 0 138.966 0C142.121 0 144.606 0.549079 146.424 1.64724C148.275 2.71108 149.595 4.25536 150.383 6.28009C151.172 8.30482 151.566 10.7585 151.566 13.6412V29.1355C151.566 31.9838 151.172 34.4375 150.383 36.4966C149.595 38.5556 148.275 40.1342 146.424 41.2324C144.606 42.3306 142.121 42.8796 138.966 42.8796ZM138.966 36.3422C139.926 36.3422 140.629 36.1019 141.075 35.6215C141.521 35.1411 141.812 34.5233 141.949 33.7684C142.086 33.0134 142.155 32.2412 142.155 31.4519V11.3762C142.155 10.5526 142.086 9.78047 141.949 9.0598C141.812 8.30482 141.521 7.68711 141.075 7.20666C140.629 6.72622 139.926 6.48599 138.966 6.48599C138.075 6.48599 137.406 6.72622 136.961 7.20666C136.515 7.68711 136.224 8.30482 136.086 9.0598C135.949 9.78047 135.881 10.5526 135.881 11.3762V31.4519C135.881 32.2412 135.932 33.0134 136.035 33.7684C136.172 34.5233 136.446 35.1411 136.858 35.6215C137.303 36.1019 138.006 36.3422 138.966 36.3422Z" fill="#F1F1F1"/>
<path d="M168.226 42.8796C165.62 42.8796 163.443 42.4164 161.695 41.4898C159.946 40.5632 158.626 39.139 157.735 37.2173C156.843 35.2612 156.346 32.7388 156.243 29.6503L164.112 28.4663C164.146 30.2508 164.3 31.6922 164.575 32.7903C164.883 33.8885 165.295 34.6778 165.809 35.1582C166.357 35.6387 167.009 35.8789 167.763 35.8789C168.723 35.8789 169.34 35.5529 169.615 34.9008C169.923 34.2488 170.077 33.5625 170.077 32.8418C170.077 31.1259 169.666 29.6846 168.843 28.5178C168.02 27.3167 166.906 26.1156 165.5 24.9145L161.9 21.7744C160.323 20.436 158.986 18.9261 157.889 17.2445C156.826 15.5286 156.295 13.4181 156.295 10.9129C156.295 7.37825 157.34 4.68433 159.432 2.83119C161.523 0.94373 164.369 0 167.969 0C170.197 0 171.98 0.377492 173.317 1.13248C174.689 1.88746 175.717 2.88267 176.403 4.11809C177.123 5.3192 177.603 6.60611 177.843 7.97881C178.117 9.31718 178.272 10.6041 178.306 11.8395L170.386 12.8176C170.352 11.5821 170.266 10.5183 170.129 9.62604C170.026 8.69947 169.786 7.99596 169.409 7.51552C169.032 7.00076 168.449 6.74338 167.66 6.74338C166.803 6.74338 166.169 7.10371 165.757 7.82438C165.38 8.54504 165.192 9.26571 165.192 9.98637C165.192 11.5307 165.552 12.8004 166.272 13.7956C167.026 14.7565 168.003 15.7689 169.203 16.8327L172.649 19.8698C174.466 21.4141 175.992 23.1643 177.226 25.1204C178.495 27.0765 179.129 29.4958 179.129 32.3785C179.129 34.3346 178.683 36.1191 177.792 37.732C176.9 39.3106 175.632 40.5632 173.986 41.4898C172.375 42.4164 170.455 42.8796 168.226 42.8796Z" fill="#F1F1F1"/>
<path d="M183.741 42.2619V0.566237H192.946V17.4504H199.426V0.566237H208.632V42.2619H199.426V24.0394H192.946V42.2619H183.741Z" fill="#F1F1F1"/>
<path d="M29.2276 49.6897C29.8801 49.3312 30.8256 49.1254 31.8199 49.1254H75.9612C78.9076 49.1254 80.4868 50.7814 78.5534 51.8436L50.1755 67.4357C49.523 67.7942 48.5775 68 47.5832 68H3.4419C0.495492 68 -1.08371 66.344 0.849656 65.2818L29.2276 49.6897Z" fill="url(#paint0_linear_2020_127)"/>
<path d="M87.6265 49.6897C88.2789 49.3312 89.2244 49.1254 90.2187 49.1254H115.466C118.413 49.1254 119.992 50.7814 118.059 51.8436L89.6806 67.4357C89.0282 67.7942 88.0826 68 87.0884 68H61.8408C58.8944 68 57.3152 66.344 59.2485 65.2818L87.6265 49.6897Z" fill="url(#paint1_linear_2020_127)"/>
<path d="M127.132 49.6897C127.784 49.3312 128.73 49.1254 129.724 49.1254H236.558C239.505 49.1254 241.084 50.7814 239.15 51.8436L210.772 67.4357C210.12 67.7942 209.174 68 208.18 68H101.346C98.3995 68 96.8203 66.344 98.7536 65.2818L127.132 49.6897Z" fill="url(#paint2_linear_2020_127)"/>
<defs>
<linearGradient id="paint0_linear_2020_127" x1="0" y1="58.5625" x2="240" y2="58.5625" gradientUnits="userSpaceOnUse">
<stop stop-color="#3880FF"/>
<stop offset="0.41" stop-color="#15E5A7"/>
<stop offset="0.99" stop-color="#F7CE4C"/>
</linearGradient>
<linearGradient id="paint1_linear_2020_127" x1="0" y1="58.5625" x2="240" y2="58.5625" gradientUnits="userSpaceOnUse">
<stop stop-color="#3880FF"/>
<stop offset="0.41" stop-color="#15E5A7"/>
<stop offset="0.99" stop-color="#F7CE4C"/>
</linearGradient>
<linearGradient id="paint2_linear_2020_127" x1="0" y1="58.5625" x2="240" y2="58.5625" gradientUnits="userSpaceOnUse">
<stop stop-color="#3880FF"/>
<stop offset="0.41" stop-color="#15E5A7"/>
<stop offset="0.99" stop-color="#F7CE4C"/>
</linearGradient>
</defs>
</svg>
