<svg width="188" height="188" viewBox="0 0 188 188" fill="none" xmlns="http://www.w3.org/2000/svg">
<g filter="url(#filter0_d_2129_215)">
<circle cx="93.8485" cy="89.8485" r="87.3485" fill="#FF8000" stroke="#0C0F14" stroke-width="5"/>
<path d="M167.719 87.3249C168.477 126.636 136.177 159.246 95.4391 160.031C54.7008 160.816 21.1691 129.474 20.4117 90.1632C19.6542 50.852 51.9537 18.2422 92.6921 17.4573C133.43 16.6723 166.962 48.0138 167.719 87.3249Z" fill="white" stroke="#0C0F14" stroke-width="4"/>
<path d="M153.105 77.8424V77.7529L153.089 77.6649C150.962 65.8672 145.353 54.6424 136.26 45.7384C127.172 36.6502 115.955 31.0403 104.159 28.9124L104.071 28.8965H103.981H103.98H103.979H103.978H103.977H103.976H103.975H103.973H103.972H103.971H103.97H103.969H103.968H103.967H103.966H103.965H103.963H103.962H103.961H103.96H103.959H103.958H103.957H103.956H103.955H103.953H103.952H103.951H103.95H103.949H103.948H103.947H103.946H103.944H103.943H103.942H103.941H103.94H103.939H103.938H103.937H103.936H103.934H103.933H103.932H103.931H103.93H103.929H103.928H103.927H103.926H103.924H103.923H103.922H103.921H103.92H103.919H103.918H103.917H103.916H103.914H103.913H103.912H103.911H103.91H103.909H103.908H103.907H103.905H103.904H103.903H103.902H103.901H103.9H103.899H103.898H103.897H103.895H103.894H103.893H103.892H103.891H103.89H103.889H103.888H103.887H103.885H103.884H103.883H103.882H103.881H103.88H103.879H103.878H103.876H103.875H103.874H103.873H103.872H103.871H103.87H103.869H103.868H103.866H103.865H103.864H103.863H103.862H103.861H103.86H103.859H103.858H103.856H103.855H103.854H103.853H103.852H103.851H103.85H103.849H103.848H103.846H103.845H103.844H103.843H103.842H103.841H103.84H103.839H103.837H103.836H103.835H103.834H103.833H103.832H103.831H103.83H103.829H103.827H103.826H103.825H103.824H103.823H103.822H103.821H103.82H103.819H103.817H103.816H103.815H103.814H103.813H103.812H103.811H103.81H103.809H103.807H103.806H103.805H103.804H103.803H103.802H103.801H103.8H103.798H103.797H103.796H103.795H103.794H103.793H103.792H103.791H103.79H103.788H103.787H103.786H103.785H103.784H103.783H103.782H103.781H103.78H103.778H103.777H103.776H103.775H103.774H103.773H103.772H103.771H103.77H103.768H103.767H103.766H103.765H103.764H103.763H103.762H103.761H103.759H103.758H103.757H103.756H103.755H103.754H103.753H103.752H103.751H103.749H103.748H103.747H103.746H103.745H103.744H103.743H103.742H103.741H103.739H103.738H103.737H103.736H103.735H103.734H103.733H103.732H103.731H103.729H103.728H103.727H103.726H103.725H103.724H103.723H103.722H103.72H103.719H103.718H103.717H103.716H103.715H103.714H103.713H103.712H103.71H103.709H103.708H103.707H103.706H103.705H103.704H103.703H103.702H103.7H103.699H103.698H103.697H103.696H103.695H103.694H103.693H103.692H103.69H103.689H103.688H103.687H103.686H103.685H103.684H103.683H103.681H103.68H103.679H103.678H103.677H103.676H103.675H103.674H103.673H103.671H103.67H103.669H103.668H103.667H103.666H103.665H103.664H103.663H103.661H103.66H103.659H103.658H103.657H103.656H103.655H103.654H103.653H103.651H103.65H103.649H103.648H103.647H103.646H103.645H103.644H103.642H103.641H103.64H103.639H103.638H103.637H103.636H103.635H103.634H103.632H103.631H103.63H103.629H103.628H103.627H103.626H103.625H103.624H103.622H103.621H103.62H103.619H103.618H103.617H103.616H103.615H103.614H103.612H103.611H103.61H103.609H103.608H103.607H103.606H103.605H103.604H103.602H103.601H103.6H103.599H103.598H103.597H103.596H103.595H103.593H103.592H103.591H103.59H103.589H103.588H103.587H103.586H103.585H103.583H103.582H103.581H103.58H103.579H103.578H103.577H103.576H103.575H103.573H103.572H103.571H103.57H103.569H103.568H103.567H103.566H103.564H103.563H103.562H103.561H103.56H103.559H103.558H103.557H103.556H103.554H103.553H103.552H103.551H103.55H103.549H103.548H103.547H103.546H103.544H103.543H103.542H103.541H103.54H103.539H103.538H103.537H103.536H103.534H103.533H103.532H103.531H103.53H103.529H103.528H103.527H103.525H103.524H103.523H103.522H103.521H103.52H103.519H103.518H103.517H103.515H103.514H103.513H103.512H103.511H103.51H103.509H103.508H103.507H103.505H103.504H103.503H103.502H103.501H103.5H103.499H103.498H103.497H103.496C84.5786 25.6413 64.312 31.2509 49.8247 45.7423C35.1488 60.4221 29.5372 80.6947 32.9834 99.8121L32.9834 99.8124V99.8131V99.8138V99.8145V99.8151V99.8158V99.8165V99.8172V99.8179V99.8186V99.8194V99.8201V99.8208V99.8215V99.8222V99.823V99.8237V99.8244V99.8252V99.8259V99.8266V99.8274V99.8281V99.8289V99.8297V99.8304V99.8312V99.832V99.8327V99.8335V99.8343V99.8351V99.8359V99.8367V99.8375V99.8383V99.8391V99.8399V99.8407V99.8415V99.8423V99.8431V99.844V99.8448V99.8456V99.8465V99.8473V99.8481V99.849V99.8498V99.8507V99.8516V99.8524V99.8533V99.8542V99.855V99.8559V99.8568V99.8577V99.8586V99.8595V99.8604V99.8613V99.8622V99.8631V99.864V99.8649V99.8658V99.8668V99.8677V99.8686V99.8696V99.8705V99.8715V99.8724V99.8734V99.8743V99.8753V99.8762V99.8772V99.8782V99.8792V99.8801V99.8811V99.8821V99.8831V99.8841V99.8851V99.8861V99.8871V99.8882V99.8892V99.8902V99.8912V99.8923V99.8933V99.8943V99.8954V99.8964V99.8975V99.8985V99.8996V99.9007V99.9017V99.9028V99.9039V99.905V99.9061V99.9072V99.9082V99.9093V99.9104V99.9116V99.9127V100.002L32.9993 100.09C35.1268 111.891 40.7365 123.113 49.8247 132.203C61.8152 144.197 77.2911 150 92.9492 150C108.609 150 124.275 144.005 136.074 132.203C150.749 117.524 156.36 97.2527 153.105 78.3274V78.3273V78.3261V78.325V78.3239V78.3228V78.3217V78.3206V78.3195V78.3183V78.3172V78.3161V78.315V78.3139V78.3128V78.3117V78.3105V78.3094V78.3083V78.3072V78.3061V78.305V78.3038V78.3027V78.3016V78.3005V78.2994V78.2983V78.2972V78.296V78.2949V78.2938V78.2927V78.2916V78.2905V78.2894V78.2882V78.2871V78.286V78.2849V78.2838V78.2827V78.2816V78.2804V78.2793V78.2782V78.2771V78.276V78.2749V78.2738V78.2726V78.2715V78.2704V78.2693V78.2682V78.2671V78.2659V78.2648V78.2637V78.2626V78.2615V78.2604V78.2593V78.2581V78.257V78.2559V78.2548V78.2537V78.2526V78.2515V78.2503V78.2492V78.2481V78.247V78.2459V78.2448V78.2437V78.2425V78.2414V78.2403V78.2392V78.2381V78.237V78.2359V78.2347V78.2336V78.2325V78.2314V78.2303V78.2292V78.2281V78.2269V78.2258V78.2247V78.2236V78.2225V78.2214V78.2202V78.2191V78.218V78.2169V78.2158V78.2147V78.2136V78.2124V78.2113V78.2102V78.2091V78.208V78.2069V78.2058V78.2046V78.2035V78.2024V78.2013V78.2002V78.1991V78.198V78.1968V78.1957V78.1946V78.1935V78.1924V78.1913V78.1902V78.189V78.1879V78.1868V78.1857V78.1846V78.1835V78.1824V78.1812V78.1801V78.179V78.1779V78.1768V78.1757V78.1746V78.1734V78.1723V78.1712V78.1701V78.169V78.1679V78.1668V78.1656V78.1645V78.1634V78.1623V78.1612V78.1601V78.159V78.1578V78.1567V78.1556V78.1545V78.1534V78.1523V78.1511V78.15V78.1489V78.1478V78.1467V78.1456V78.1445V78.1433V78.1422V78.1411V78.14V78.1389V78.1378V78.1367V78.1355V78.1344V78.1333V78.1322V78.1311V78.13V78.1289V78.1277V78.1266V78.1255V78.1244V78.1233V78.1222V78.1211V78.1199V78.1188V78.1177V78.1166V78.1155V78.1144V78.1133V78.1121V78.111V78.1099V78.1088V78.1077V78.1066V78.1055V78.1043V78.1032V78.1021V78.101V78.0999V78.0988V78.0977V78.0965V78.0954V78.0943V78.0932V78.0921V78.091V78.0899V78.0887V78.0876V78.0865V78.0854V78.0843V78.0832V78.0821V78.0809V78.0798V78.0787V78.0776V78.0765V78.0754V78.0743V78.0731V78.072V78.0709V78.0698V78.0687V78.0676V78.0664V78.0653V78.0642V78.0631V78.062V78.0609V78.0598V78.0586V78.0575V78.0564V78.0553V78.0542V78.0531V78.052V78.0508V78.0497V78.0486V78.0475V78.0464V78.0453V78.0442V78.043V78.0419V78.0408V78.0397V78.0386V78.0375V78.0364V78.0352V78.0341V78.033V78.0319V78.0308V78.0297V78.0286V78.0274V78.0263V78.0252V78.0241V78.023V78.0219V78.0208V78.0196V78.0185V78.0174V78.0163V78.0152V78.0141V78.013V78.0118V78.0107V78.0096V78.0085V78.0074V78.0063V78.0051V78.004V78.0029V78.0018V78.0007V77.9996V77.9985V77.9973V77.9962V77.9951V77.994V77.9929V77.9918V77.9907V77.9895V77.9884V77.9873V77.9862V77.9851V77.984V77.9829V77.9817V77.9806V77.9795V77.9784V77.9773V77.9762V77.9751V77.9739V77.9728V77.9717V77.9706V77.9695V77.9684V77.9673V77.9661V77.965V77.9639V77.9628V77.9617V77.9606V77.9594V77.9583V77.9572V77.9561V77.955V77.9539V77.9528V77.9516V77.9505V77.9494V77.9483V77.9472V77.9461V77.945V77.9438V77.9427V77.9416V77.9405V77.9394V77.9383V77.9372V77.936V77.9349V77.9338V77.9327V77.9316V77.9305V77.9293V77.9282V77.9271V77.926V77.9249V77.9238V77.9227V77.9215V77.9204V77.9193V77.9182V77.9171V77.916V77.9149V77.9137V77.9126V77.9115V77.9104V77.9093V77.9082V77.907V77.9059V77.9048V77.9037V77.9026V77.9015V77.9004V77.8992V77.8981V77.897V77.8959V77.8948V77.8937V77.8926V77.8914V77.8903V77.8892V77.8881V77.887V77.8859V77.8847V77.8836V77.8825V77.8814V77.8803V77.8792V77.8781V77.8769V77.8758V77.8747V77.8736V77.8725V77.8714V77.8703V77.8691V77.868V77.8669V77.8658V77.8647V77.8636V77.8624V77.8613V77.8602V77.8591V77.858V77.8569V77.8558V77.8546V77.8535V77.8524V77.8513V77.8502V77.8491V77.8479V77.8468V77.8457V77.8446V77.8435V77.8424ZM109.554 68.1896C101.839 58.8575 100.136 45.9997 104.943 34.8527C114.059 36.9118 122.644 41.1266 129.933 47.8056L109.554 68.1896ZM146.962 76.7002C135.83 81.6707 122.972 79.8152 113.631 72.0776L134.01 51.6937C140.69 58.9873 144.905 67.5785 146.962 76.7002ZM93.1374 84.9916L55.785 47.8121C66.3205 38.3682 79.6352 33.5603 92.9492 33.5603C95.1255 33.5603 97.1722 33.6895 99.31 33.9493C94.0513 46.8706 96.5138 61.5441 105.841 72.2849L93.1374 84.9916ZM51.8918 51.6974L89.0624 88.8777L75.9794 101.963C65.4188 92.8127 50.9345 90.3564 38.2052 95.2747C36.0827 80.0826 40.7474 63.9856 51.8918 51.6974ZM75.955 109.954C83.5106 119.273 85.3722 131.781 80.7548 142.897C71.8176 140.836 63.2472 136.622 55.9651 129.949L75.955 109.954ZM51.885 126.058C45.2085 118.767 40.9952 110.179 38.9374 101.061C49.8799 96.2703 62.3874 98.1367 71.7084 106.052L51.885 126.058ZM79.6819 106.036L92.7589 92.9558L129.929 130.135C117.822 141.099 101.731 145.766 86.3636 143.81C91.2763 130.919 88.8326 116.433 79.6819 106.036ZM133.845 85.3113C138.502 85.3113 143.166 84.4887 147.682 82.6905C149.636 97.8763 145.132 113.789 134.006 126.058L96.8359 88.8777L109.536 76.1739C116.461 82.2056 125.151 85.3113 133.845 85.3113Z" fill="#231F20" stroke="black" stroke-width="2"/>
</g>
<defs>
<filter id="filter0_d_2129_215" x="0" y="0" width="187.697" height="187.697" filterUnits="userSpaceOnUse" color-interpolation-filters="sRGB">
<feFlood flood-opacity="0" result="BackgroundImageFix"/>
<feColorMatrix in="SourceAlpha" type="matrix" values="0 0 0 0 0 0 0 0 0 0 0 0 0 0 0 0 0 0 127 0" result="hardAlpha"/>
<feOffset dy="4"/>
<feGaussianBlur stdDeviation="2"/>
<feComposite in2="hardAlpha" operator="out"/>
<feColorMatrix type="matrix" values="0 0 0 0 0 0 0 0 0 0 0 0 0 0 0 0 0 0 0.25 0"/>
<feBlend mode="normal" in2="BackgroundImageFix" result="effect1_dropShadow_2129_215"/>
<feBlend mode="normal" in="SourceGraphic" in2="effect1_dropShadow_2129_215" result="shape"/>
</filter>
</defs>
</svg>
