<svg width="188" height="188" viewBox="0 0 188 188" fill="none" xmlns="http://www.w3.org/2000/svg">
<g filter="url(#filter0_d_2129_215)">
<circle cx="93.8485" cy="89.8485" r="87.3485" fill="#00FF66" stroke="#0C0F14" stroke-width="5"/>
<path d="M167.719 87.3249C168.477 126.636 136.177 159.246 95.4391 160.031C54.7008 160.816 21.1691 129.474 20.4117 90.1632C19.6542 50.852 51.9537 18.2422 92.6921 17.4573C133.43 16.6723 166.962 48.0138 167.719 87.3249Z" fill="white" stroke="#0C0F14" stroke-width="4"/>
<path d="M87.8968 61.488L106.113 68.8119C106.3 68.8119 106.488 68.9998 106.864 68.9998C107.427 68.9998 107.991 68.8119 108.366 68.4365L119.258 55.8542C119.822 55.2907 119.822 54.352 119.446 53.6006L109.305 36.5114C108.929 35.7603 107.991 35.3846 107.052 35.5724L88.4601 41.2062C87.709 41.3941 87.1457 42.1452 87.1457 42.8963L86.5822 59.6101C86.5822 60.5491 87.1457 61.1123 87.8968 61.488ZM90.9013 44.3988L106.864 39.704L115.315 54.352L106.3 64.8682L90.7137 58.4833L90.9013 44.3988Z" fill="#231F20"/>
<path d="M110.056 95.4784L102.92 113.507C102.545 114.258 102.92 115.197 103.484 115.572L116.441 126.277C116.817 126.652 117.192 126.652 117.568 126.652C117.944 126.652 118.132 126.652 118.507 126.465L135.409 116.699C136.16 116.324 136.535 115.572 136.347 114.633L133.155 98.4832C132.967 97.7321 132.404 97.1688 131.652 96.981L111.934 94.1641C111.183 94.1641 110.244 94.5398 110.056 95.4784ZM129.775 100.549L132.404 114.258L117.756 122.709L106.864 113.694L112.873 98.2956L129.775 100.549Z" fill="#231F20"/>
<path d="M85.831 70.5022C85.2678 69.939 84.141 69.9389 83.5774 70.3144L67.4271 81.5819C66.676 81.9576 66.4885 82.8966 66.676 83.6477L71.3709 99.6101C71.5587 100.362 72.3098 100.925 73.0612 100.925L92.7795 102.239H92.9671C93.7182 102.239 94.4696 101.864 94.6574 101.113L101.042 85.9014C101.418 85.1499 101.23 84.3988 100.479 83.8356L85.831 70.5022ZM91.6527 98.4833L74.7513 97.3568L70.8076 83.8356L84.3285 74.2581L96.9108 85.5257L91.6527 98.4833Z" fill="#231F20"/>
<path d="M153.249 80.2677C152.873 78.014 152.497 75.7604 151.934 73.6949C150.62 69.0001 148.929 64.4928 146.676 60.3616C144.986 57.3568 143.296 54.5399 141.23 51.9109C130.15 38.0139 113.061 29 93.9059 29C77.3803 29 62.169 35.7606 51.2771 46.8403C50.1503 47.9672 49.2113 49.094 48.2723 50.2205C43.9529 55.291 40.3849 61.1127 37.9437 67.4976C37.3802 68.8122 37.0048 69.9388 36.629 71.2534C34.939 76.8872 34 82.7089 34 88.9062C34 96.4179 35.3146 103.554 37.9437 110.127C38.8827 112.756 40.1971 115.385 41.5117 117.638C42.8264 120.08 44.3286 122.333 45.8308 124.399C47.5212 126.653 49.2113 128.718 51.0892 130.596C58.2252 137.92 67.0516 143.366 77.1924 146.183C78.5071 146.559 79.8214 146.934 81.1361 147.122C85.2677 148.061 89.5868 148.436 93.9059 148.436C94.6573 148.436 95.4084 148.436 96.3474 148.436C97.8496 148.436 99.3522 148.249 100.854 148.061C130.714 144.681 154 119.329 154 88.5305C153.812 85.9015 153.624 83.0846 153.249 80.2677ZM149.305 79.892L149.117 80.4552L132.216 79.3284L128.272 65.8075L140.291 57.3568C144.798 63.9296 147.991 71.6291 149.305 79.892ZM52.7793 50.7841L57.2866 51.3473L59.9153 65.0564L45.2676 73.5071L41.136 69.9388C43.5775 62.8028 47.7088 56.23 52.7793 50.7841ZM53.3429 127.591C48.4599 122.333 44.5165 116.324 41.6996 109.563V108.624L57.662 103.93L66.1127 118.577L57.0984 129.094L53.3429 127.591ZM98.4132 144.868C96.911 145.056 95.4085 145.056 93.9059 145.056C89.2111 145.056 84.7041 144.493 80.5729 143.366L78.6946 131.911L90.9015 124.774L103.296 135.667L98.4132 144.868ZM102.92 144.305L107.239 136.418C107.615 135.667 107.427 134.728 106.864 134.164L92.2158 121.394C91.6526 120.831 90.7136 120.831 89.9625 121.206L75.5023 129.657C74.7512 130.033 74.3755 130.784 74.5634 131.535L76.4413 142.427C69.8685 140.361 64.0469 136.981 58.7888 132.85C58.7888 132.85 58.7888 132.85 58.9764 132.85L69.8685 120.267C70.4318 119.704 70.4318 118.765 70.0564 118.014L60.1032 100.737C59.7278 99.986 58.7888 99.6102 57.8498 99.7981L40.0095 105.244C38.6948 99.9859 37.7559 94.54 37.7559 88.9062C37.7559 83.6478 38.507 78.5773 39.8216 73.8825L43.7654 77.2629C44.1408 77.6386 44.5165 77.6386 44.8919 77.6386C45.2676 77.6386 45.4554 77.6386 45.8308 77.4508L62.7325 67.6854C63.4836 67.3097 63.859 66.5586 63.6715 65.6196L60.4789 49.2818C60.291 48.5304 59.7278 47.9672 58.9764 47.7793L55.9719 47.4039C66.1127 38.3897 79.2582 32.7559 93.9059 32.7559C111.747 32.7559 127.709 41.2065 138.038 54.1642L124.892 63.3663C124.141 63.7417 123.953 64.6807 124.141 65.4321L128.835 81.3942C129.023 82.1456 129.774 82.7089 130.526 82.7089L149.681 84.0232C149.868 85.5258 149.868 87.2158 149.868 88.9062C150.056 116.887 129.587 139.986 102.92 144.305Z" fill="#231F20"/>
</g>
<defs>
<filter id="filter0_d_2129_215" x="0" y="0" width="187.697" height="187.697" filterUnits="userSpaceOnUse" color-interpolation-filters="sRGB">
<feFlood flood-opacity="0" result="BackgroundImageFix"/>
<feColorMatrix in="SourceAlpha" type="matrix" values="0 0 0 0 0 0 0 0 0 0 0 0 0 0 0 0 0 0 127 0" result="hardAlpha"/>
<feOffset dy="4"/>
<feGaussianBlur stdDeviation="2"/>
<feComposite in2="hardAlpha" operator="out"/>
<feColorMatrix type="matrix" values="0 0 0 0 0 0 0 0 0 0 0 0 0 0 0 0 0 0 0.25 0"/>
<feBlend mode="normal" in2="BackgroundImageFix" result="effect1_dropShadow_2129_215"/>
<feBlend mode="normal" in="SourceGraphic" in2="effect1_dropShadow_2129_215" result="shape"/>
</filter>
</defs>
</svg>
